<svg width="32" height="40" xmlns="http://www.w3.org/2000/svg" xmlns:xlink="http://www.w3.org/1999/xlink" version="1.1" x="0px" y="0px" viewBox="0 0 512 640" enable-background="new 0 0 512 512" xml:space="preserve"><g><path d="M256,0C139.167,0,44.467,94.708,44.467,211.533C44.467,372.184,256,512,256,512s211.533-139.816,211.533-300.467   C467.533,94.708,372.833,0,256,0z M256,375.941c-90.8,0-164.4-73.6-164.4-164.408c0-90.8,73.601-164.408,164.4-164.408   s164.417,73.608,164.417,164.408C420.417,302.342,346.8,375.941,256,375.941z" style="fill:#008000"/><path d="M296.783,189.667c-12.899,0-24.559,1.3-32.917,3.417c-2.55-4.217-7.075-7.117-12.291-7.4   c-2.275-8.384-7.075-19.483-13.726-31c-12.733-22.033-27.441-37.367-32.866-34.233c-5.425,3.133,0.475,23.533,13.2,45.566   c6.475,11.233,13.475,20.7,19.492,26.884c-1.467,2.366-2.316,5.133-2.316,8.116c0,2.783,0.741,5.384,2.033,7.634   c-5.95,6.2-12.833,15.55-19.208,26.6c-12.725,22.033-18.625,42.434-13.2,45.566c5.425,3.134,20.133-12.184,32.866-34.216   c6.45-11.183,11.15-21.95,13.509-30.25c5.308-0.217,9.916-3.117,12.508-7.4c8.358,2.116,20.018,3.417,32.917,3.417   c25.45,0,46.075-5.083,46.075-11.35S322.233,189.667,296.783,189.667z" style="fill:#008000"/><path d="M258.066,219.934c-2.875,8.25-7.283,17.65-12.7,27.033c-2.816,4.867-5.8,9.55-8.825,13.85l-1.858,55.5h30.716l-3.283-98.1   C260.825,218.917,259.467,219.5,258.066,219.934z" style="fill:#008000"/></g></svg>